<svg width="64" height="64" viewBox="0 0 64 64" fill="none" xmlns="http://www.w3.org/2000/svg">
<rect width="64" height="64" rx="5" fill="#121212"/>
<path d="M6.46 35.14C6.24667 35.0467 6.07333 34.92 5.94 34.76C5.82 34.5867 5.76 34.3867 5.76 34.16C5.76 33.9333 5.82 33.74 5.94 33.58C6.07333 33.4067 6.24667 33.2733 6.46 33.18L17.14 28.56C17.4867 29.0267 17.66 29.4933 17.66 29.96C17.66 30.28 17.5733 30.56 17.4 30.8C17.2267 31.04 16.98 31.2267 16.66 31.36L9.64 34.16L16.64 36.96C16.9467 37.08 17.18 37.2733 17.34 37.54C17.5 37.8067 17.58 38.1067 17.58 38.44C17.58 38.9467 17.4333 39.3933 17.14 39.78L6.46 35.14ZM21.5184 40C21.1451 40 20.8251 39.8867 20.5584 39.66C20.3051 39.42 20.1784 39.1267 20.1784 38.78V27.22C20.1784 26.8733 20.3051 26.5867 20.5584 26.36C20.8118 26.12 21.1318 26 21.5184 26H25.9584C27.1451 26 28.1918 26.2267 29.0984 26.68C30.0184 27.1333 30.7251 27.7733 31.2184 28.6C31.7251 29.4133 31.9784 30.3467 31.9784 31.4V34.56C31.9784 35.6133 31.7251 36.5533 31.2184 37.38C30.7118 38.2067 29.9984 38.8533 29.0784 39.32C28.1718 39.7733 27.1318 40 25.9584 40H21.5184ZM25.7584 37.7C26.9184 37.7 27.7984 37.44 28.3984 36.92C28.9984 36.3867 29.2984 35.6067 29.2984 34.58V31.36C29.2984 30.36 28.9984 29.6 28.3984 29.08C27.7984 28.56 26.9184 28.3 25.7584 28.3H22.8584V37.7H25.7584ZM41.147 26.14C41.2804 25.86 41.4804 25.6467 41.747 25.5C42.027 25.34 42.3337 25.26 42.667 25.26C43.2137 25.26 43.707 25.4333 44.147 25.78L37.147 39.84C37.0004 40.12 36.7937 40.3333 36.527 40.48C36.2604 40.64 35.9604 40.72 35.627 40.72C35.1204 40.72 34.6337 40.54 34.167 40.18L41.147 26.14ZM46.7709 39.78C46.4776 39.3933 46.3309 38.9533 46.3309 38.46C46.3309 38.1133 46.4109 37.8067 46.5709 37.54C46.7443 37.2733 46.9843 37.08 47.2909 36.96L54.2709 34.16L47.2709 31.36C46.9509 31.2267 46.7043 31.04 46.5309 30.8C46.3576 30.5467 46.2709 30.26 46.2709 29.94C46.2709 29.4733 46.4376 29.0133 46.7709 28.56L57.4709 33.18C57.6843 33.2733 57.8509 33.4067 57.9709 33.58C58.1043 33.74 58.1709 33.9333 58.1709 34.16C58.1709 34.3867 58.1043 34.5867 57.9709 34.76C57.8509 34.92 57.6843 35.0467 57.4709 35.14L46.7709 39.78Z" fill="url(#paint0_linear_1687_4)"/>
<defs>
<linearGradient id="paint0_linear_1687_4" x1="5" y1="31.5806" x2="59" y2="31.5806" gradientUnits="userSpaceOnUse">
<stop stop-color="#FA6E00"/>
<stop offset="1" stop-color="#E60026"/>
</linearGradient>
</defs>
</svg>
