<svg width="24" height="24" viewBox="0 0 24 24" fill="none" xmlns="http://www.w3.org/2000/svg">
<path d="M9.0961 21.25V18.104C9.09612 17.3325 9.36405 16.5849 9.8541 15.989C6.8491 15.589 4.5741 14.13 4.5741 10.191C4.5741 8.525 6.0061 6.301 6.0061 6.301C5.4921 5.171 5.5061 3.217 6.0661 2.75C6.0661 2.75 8.0161 2.925 9.9131 4.5C11.7511 4.005 13.6771 3.946 15.5741 4.5C17.4711 2.925 19.4221 2.75 19.4221 2.75C19.9801 3.217 19.9951 5.172 19.4821 6.301C19.4821 6.301 20.9141 8.525 20.9141 10.191C20.9141 14.131 18.6381 15.589 15.6341 15.989C16.1238 16.585 16.3914 17.3326 16.3911 18.104V21.25" stroke="#BABABA" stroke-width="1.5" stroke-linecap="round" stroke-linejoin="round"/>
<path d="M3.08606 16.5701C3.24906 17.1241 3.54906 17.6361 3.96406 18.0661C4.37806 18.4971 4.89606 18.8361 5.47706 19.0541C6.06193 19.2736 6.6864 19.3678 7.31 19.3306C7.93361 19.2934 8.54244 19.1256 9.09706 18.8381" stroke="#BABABA" stroke-width="1.5" stroke-linecap="round" stroke-linejoin="round"/>
</svg>
