<svg width="186" height="24" viewBox="0 0 186 24" fill="none" xmlns="http://www.w3.org/2000/svg">
<path d="M1.04999 14.8201C0.729985 14.6801 0.469985 14.4901 0.269985 14.2501C0.0899854 13.9901 -1.45733e-05 13.6901 -1.45733e-05 13.3501C-1.45733e-05 13.0101 0.0899854 12.7201 0.269985 12.4801C0.469985 12.2201 0.729985 12.0201 1.04999 11.8801L17.07 4.95011C17.59 5.65011 17.85 6.35011 17.85 7.05011C17.85 7.53011 17.72 7.95011 17.46 8.31011C17.2 8.67011 16.83 8.95011 16.35 9.15011L5.81999 13.3501L16.32 17.5501C16.78 17.7301 17.13 18.0201 17.37 18.4201C17.61 18.8201 17.73 19.2701 17.73 19.7701C17.73 20.5301 17.51 21.2001 17.07 21.7801L1.04999 14.8201ZM23.6376 22.1101C23.0776 22.1101 22.5976 21.9401 22.1976 21.6001C21.8176 21.2401 21.6276 20.8001 21.6276 20.2801V2.94011C21.6276 2.42011 21.8176 1.99011 22.1976 1.65011C22.5776 1.29011 23.0576 1.11011 23.6376 1.11011H30.2976C32.0776 1.11011 33.6476 1.45011 35.0076 2.13011C36.3876 2.81011 37.4476 3.77011 38.1876 5.01011C38.9476 6.23011 39.3276 7.63011 39.3276 9.21011V13.9501C39.3276 15.5301 38.9476 16.9401 38.1876 18.1801C37.4276 19.4201 36.3576 20.3901 34.9776 21.0901C33.6176 21.7701 32.0576 22.1101 30.2976 22.1101H23.6376ZM29.9976 18.6601C31.7376 18.6601 33.0576 18.2701 33.9576 17.4901C34.8576 16.6901 35.3076 15.5201 35.3076 13.9801V9.15011C35.3076 7.65011 34.8576 6.51011 33.9576 5.73011C33.0576 4.95011 31.7376 4.56011 29.9976 4.56011H25.6476V18.6601H29.9976ZM48.0448 22.3801C47.0248 22.3801 46.0848 22.1801 45.2248 21.7801C44.3848 21.3801 43.7048 20.8101 43.1848 20.0701C42.6848 19.3101 42.4348 18.4101 42.4348 17.3701C42.4348 16.3301 42.7048 15.4301 43.2448 14.6701C43.7848 13.8901 44.5148 13.3001 45.4348 12.9001C46.3748 12.4801 47.4048 12.2701 48.5248 12.2701C49.4448 12.2701 50.2648 12.4201 50.9848 12.7201C51.7248 13.0001 52.4048 13.4301 53.0248 14.0101L53.1748 13.8601C52.9948 13.6801 52.6848 13.4101 52.2448 13.0501V12.4501C52.2448 11.6301 51.9548 10.9801 51.3748 10.5001C50.7948 10.0201 49.9848 9.78011 48.9448 9.78011C47.0848 9.78011 45.7148 10.4601 44.8348 11.8201C44.3948 11.6801 44.0248 11.4601 43.7248 11.1601C43.4248 10.8401 43.2748 10.5001 43.2748 10.1401C43.2748 9.54011 43.5448 8.99011 44.0848 8.49011C44.6248 7.99011 45.3548 7.59011 46.2748 7.29011C47.1948 6.99011 48.1948 6.84011 49.2748 6.84011C51.3948 6.84011 53.0348 7.34011 54.1948 8.34011C55.3548 9.32011 55.9348 10.6601 55.9348 12.3601V19.8601C55.9348 20.7401 55.6548 21.3801 55.0948 21.7801C54.5348 22.1801 53.6548 22.3801 52.4548 22.3801V21.1501C52.7948 20.8101 53.0248 20.5601 53.1448 20.4001L53.0248 20.2501C52.3648 20.9501 51.6548 21.4801 50.8948 21.8401C50.1548 22.2001 49.2048 22.3801 48.0448 22.3801ZM49.0048 19.6501C50.0448 19.6501 50.8548 19.4501 51.4348 19.0501C52.0148 18.6501 52.3048 18.0801 52.3048 17.3401C52.3048 16.6201 52.0048 16.0501 51.4048 15.6301C50.8248 15.2101 50.0348 15.0001 49.0348 15.0001C48.1148 15.0001 47.3848 15.2101 46.8448 15.6301C46.3248 16.0301 46.0648 16.6001 46.0648 17.3401C46.0648 18.1001 46.3248 18.6801 46.8448 19.0801C47.3648 19.4601 48.0848 19.6501 49.0048 19.6501ZM60.1952 9.72011C60.1952 8.80011 60.4852 8.09011 61.0652 7.59011C61.6652 7.09011 62.5652 6.84011 63.7652 6.84011V8.64011C63.5252 8.92011 63.2852 9.24011 63.0452 9.60011L63.2252 9.72011C63.8252 8.82011 64.5952 8.12011 65.5352 7.62011C66.4752 7.10011 67.5152 6.84011 68.6552 6.84011C69.6752 6.84011 70.5752 7.07011 71.3552 7.53011C72.1352 7.99011 72.7352 8.62011 73.1552 9.42011C73.5952 10.2201 73.8152 11.1201 73.8152 12.1201V20.1001C73.8152 20.9001 73.5052 21.4801 72.8852 21.8401C72.2652 22.2001 71.3252 22.3801 70.0652 22.3801V12.6601C70.0652 11.9001 69.8352 11.2801 69.3752 10.8001C68.9352 10.3201 68.2852 10.0801 67.4252 10.0801C66.4052 10.0801 65.5652 10.4001 64.9052 11.0401C64.2452 11.6601 63.9152 12.4401 63.9152 13.3801V20.1001C63.9152 20.9001 63.6152 21.4801 63.0152 21.8401C62.4152 22.2001 61.4752 22.3801 60.1952 22.3801V9.72011ZM86.6981 22.3801C84.9181 22.3801 83.3281 22.0401 81.9281 21.3601C80.5481 20.6801 79.4681 19.7301 78.6881 18.5101C77.9081 17.2901 77.5181 15.9001 77.5181 14.3401V8.82011C77.5181 7.26011 77.8981 5.88011 78.6581 4.68011C79.4381 3.46011 80.5081 2.52011 81.8681 1.86011C83.2281 1.18011 84.7881 0.840106 86.5481 0.840106C88.3081 0.840106 89.8681 1.11011 91.2281 1.65011C92.6081 2.17011 93.6781 2.91011 94.4381 3.87011C95.1981 4.81011 95.5781 5.89011 95.5781 7.11011C95.5781 7.85011 95.3281 8.44011 94.8281 8.88011C94.3481 9.30011 93.6981 9.51011 92.8781 9.51011C92.4781 9.51011 92.0381 9.45011 91.5581 9.33011C91.5981 8.85011 91.6181 8.38011 91.6181 7.92011C91.6181 6.86011 91.1481 6.00011 90.2081 5.34011C89.2681 4.68011 88.0481 4.35011 86.5481 4.35011C85.0681 4.35011 83.8581 4.77011 82.9181 5.61011C81.9981 6.43011 81.5381 7.50011 81.5381 8.82011V14.3401C81.5381 15.6801 82.0181 16.7701 82.9781 17.6101C83.9381 18.4501 85.1781 18.8701 86.6981 18.8701C88.1981 18.8701 89.4181 18.5401 90.3581 17.8801C91.2981 17.2201 91.7681 16.3701 91.7681 15.3301C91.7681 14.8501 91.7481 14.3901 91.7081 13.9501C92.2081 13.8501 92.6281 13.8001 92.9681 13.8001C93.8081 13.8001 94.4781 14.0201 94.9781 14.4601C95.4781 14.9001 95.7281 15.5001 95.7281 16.2601C95.7281 17.4401 95.3481 18.5001 94.5881 19.4401C93.8281 20.3601 92.7581 21.0801 91.3781 21.6001C90.0181 22.1201 88.4581 22.3801 86.6981 22.3801ZM105.033 22.3801C103.733 22.3801 102.553 22.1501 101.493 21.6901C100.453 21.2101 99.6328 20.5501 99.0328 19.7101C98.4328 18.8701 98.1328 17.9201 98.1328 16.8601V12.6301C98.1328 11.5501 98.4228 10.5701 99.0028 9.69011C99.6028 8.81011 100.423 8.12011 101.463 7.62011C102.503 7.10011 103.693 6.84011 105.033 6.84011C106.373 6.84011 107.563 7.10011 108.603 7.62011C109.663 8.12011 110.483 8.81011 111.063 9.69011C111.663 10.5701 111.963 11.5501 111.963 12.6301V16.8601C111.963 17.9201 111.653 18.8701 111.033 19.7101C110.433 20.5501 109.603 21.2101 108.543 21.6901C107.503 22.1501 106.333 22.3801 105.033 22.3801ZM105.033 19.1701C106.033 19.1701 106.813 18.9401 107.373 18.4801C107.953 18.0201 108.243 17.4001 108.243 16.6201V12.8101C108.243 11.9901 107.953 11.3301 107.373 10.8301C106.813 10.3101 106.033 10.0501 105.033 10.0501C104.053 10.0501 103.273 10.3101 102.693 10.8301C102.113 11.3301 101.823 11.9901 101.823 12.8101V16.6201C101.823 17.4001 102.113 18.0201 102.693 18.4801C103.273 18.9401 104.053 19.1701 105.033 19.1701ZM120.593 22.3801C119.513 22.3801 118.543 22.1501 117.683 21.6901C116.823 21.2301 116.143 20.6001 115.643 19.8001C115.143 18.9801 114.893 18.0401 114.893 16.9801V12.2401C114.893 11.2001 115.153 10.2701 115.673 9.45011C116.193 8.63011 116.913 7.99011 117.833 7.53011C118.773 7.07011 119.813 6.84011 120.953 6.84011C121.693 6.84011 122.453 7.00011 123.233 7.32011C124.033 7.62011 124.703 8.03011 125.243 8.55011L125.363 8.40011C125.263 8.24011 125.043 8.04011 124.703 7.80011V3.36011C124.703 2.56011 125.013 1.94011 125.633 1.50011C126.273 1.06011 127.233 0.840106 128.513 0.840106V19.8001C128.513 20.5401 128.233 21.1601 127.673 21.6601C127.113 22.1401 126.243 22.3801 125.063 22.3801V20.7301C125.323 20.4101 125.513 20.1501 125.633 19.9501L125.483 19.8301C124.863 20.6701 124.173 21.3101 123.413 21.7501C122.673 22.1701 121.733 22.3801 120.593 22.3801ZM121.703 19.1401C122.603 19.1401 123.333 18.9301 123.893 18.5101C124.473 18.0701 124.763 17.5201 124.763 16.8601V12.3301C124.763 11.6901 124.473 11.1601 123.893 10.7401C123.333 10.3001 122.593 10.0801 121.673 10.0801C120.693 10.0801 119.933 10.2901 119.393 10.7101C118.873 11.1101 118.613 11.6901 118.613 12.4501V16.7101C118.613 17.5101 118.873 18.1201 119.393 18.5401C119.933 18.9401 120.703 19.1401 121.703 19.1401ZM139.476 22.3801C138.236 22.3801 137.106 22.1401 136.086 21.6601C135.066 21.1601 134.256 20.4901 133.656 19.6501C133.056 18.7901 132.756 17.8301 132.756 16.7701V12.7801C132.756 11.6601 133.066 10.6501 133.686 9.75011C134.306 8.85011 135.126 8.14011 136.146 7.62011C137.186 7.10011 138.306 6.84011 139.506 6.84011C140.686 6.84011 141.766 7.09011 142.746 7.59011C143.746 8.07011 144.536 8.75011 145.116 9.63011C145.696 10.4901 145.986 11.4801 145.986 12.6001V14.2801C145.986 14.7201 145.816 15.0901 145.476 15.3901C145.156 15.6901 144.746 15.8401 144.246 15.8401H136.386V16.5001C136.386 17.3601 136.646 18.0601 137.166 18.6001C137.686 19.1401 138.466 19.4101 139.506 19.4101C140.506 19.4101 141.246 19.1901 141.726 18.7501C142.226 18.3101 142.476 17.7401 142.476 17.0401C142.836 17.0001 143.086 16.9801 143.226 16.9801C143.966 16.9801 144.546 17.1501 144.966 17.4901C145.386 17.8101 145.596 18.2701 145.596 18.8701C145.596 19.4501 145.326 20.0101 144.786 20.5501C144.246 21.0901 143.506 21.5301 142.566 21.8701C141.626 22.2101 140.596 22.3801 139.476 22.3801ZM142.596 13.1701V12.6001C142.596 11.7601 142.306 11.0801 141.726 10.5601C141.146 10.0401 140.396 9.78011 139.476 9.78011C138.556 9.78011 137.806 10.0401 137.226 10.5601C136.666 11.0601 136.386 11.7401 136.386 12.6001V13.1701H142.596ZM159.613 1.32011C159.813 0.900106 160.113 0.580106 160.513 0.360107C160.933 0.120106 161.393 0.000105977 161.893 0.000105977C162.713 0.000105977 163.453 0.260106 164.113 0.780107L153.613 21.8701C153.393 22.2901 153.083 22.6101 152.683 22.8301C152.283 23.0701 151.833 23.1901 151.333 23.1901C150.573 23.1901 149.843 22.9201 149.143 22.3801L159.613 1.32011ZM168.049 21.7801C167.609 21.2001 167.389 20.5401 167.389 19.8001C167.389 19.2801 167.509 18.8201 167.749 18.4201C168.009 18.0201 168.369 17.7301 168.829 17.5501L179.299 13.3501L168.799 9.15011C168.319 8.95011 167.949 8.67011 167.689 8.31011C167.429 7.93011 167.299 7.50011 167.299 7.02011C167.299 6.32011 167.549 5.63011 168.049 4.95011L184.099 11.8801C184.419 12.0201 184.669 12.2201 184.849 12.4801C185.049 12.7201 185.149 13.0101 185.149 13.3501C185.149 13.6901 185.049 13.9901 184.849 14.2501C184.669 14.4901 184.419 14.6801 184.099 14.8201L168.049 21.7801Z" fill="url(#paint0_linear_587_644)"/>
<defs>
<linearGradient id="paint0_linear_587_644" x1="-1.14001" y1="9.98108" x2="186.86" y2="9.98107" gradientUnits="userSpaceOnUse">
<stop stop-color="#FA6E00"/>
<stop offset="1" stop-color="#E60026"/>
</linearGradient>
</defs>
</svg>
